<svg width="800" height="600" xmlns="http://www.w3.org/2000/svg">
 <g id="Layer_1">
  <title>Layer 1</title>
  <defs stroke="null" transform="translate(-0.0000610352 0) translate(0.0000610352 0) translate(-0.0000610352 0) translate(0.0000610352 0) translate(-0.0000610352 0) translate(0.0000610352 0) translate(-0.0000610352 0) translate(0.0000610352 0) translate(-0.0000610352 0) translate(-36.9215 0) translate(73.843 0) translate(0 50.2236) translate(0 -0.0000038147) translate(0 50.2236) translate(0 0.0000610352) translate(0 23.2763) translate(-36.9215 0) translate(0.0000610352 0) translate(-0.0000610352 0) translate(0.0000610352 0) translate(-0.0000610352 0) translate(0.0000610352 0) translate(-0.0000610352 0) translate(0.0000610352 0) translate(-0.0000610352 0) translate(0.0000610352 0) translate(-36.9215 0) translate(-170.524 0) translate(6 -5) translate(-187 0) translate(6 0) translate(24 -18) translate(73 19) translate(-116 -1) translate(10 -39) translate(47 -10) translate(-29 219) translate(58 7) translate(-100 -173) translate(105 -229) translate(204 147) translate(-1 0) translate(-239.614 0) translate(0 78.6792) translate(1024.92 -370.724) scale(0.68076 1) translate(-1024.92 370.724) translate(-50.5101 -370.724) scale(0.838983 1) translate(50.5101 370.724) translate(111.129 1117.72) scale(1 0.730142) translate(-111.129 -1117.72) translate(111.129 1530.83) scale(0.998599 1.02348) translate(-111.129 -1530.83) translate(220.14 -374.318) scale(1 0.771559) translate(-220.14 374.318) translate(269.233 1151.15) scale(1.25812 1.04008) translate(-269.233 -1151.15) translate(448.892 1106.79) scale(0.964319 1.00249) translate(-448.892 -1106.79) translate(264.19 -239.07) scale(0.898247 0.95536) translate(-264.19 239.07) translate(187.217 -250.241) scale(0.886721 0.950678) translate(-187.217 250.241) translate(252.918 -261.393) scale(1.23808 1) translate(-252.918 261.393) translate(1681.96 -261.393) scale(1.16181 1) translate(-1681.96 261.393) translate(331.145 -261.393) scale(1 0.879855) translate(-331.145 261.393) translate(1580.99 -297.086) scale(1.13726 1) translate(-1580.99 297.086) translate(1489.59 -297.086) scale(1.02929 1) translate(-1489.59 297.086) translate(1467.81 -297.086) scale(1.12157 1) translate(-1467.81 297.086) translate(1384.99 -297.086) scale(1.0861 1.03724) translate(-1384.99 297.086) translate(1330.24 1055.03) scale(0.995045 0.994016) translate(-1330.24 -1055.03) translate(1333.99 1061.38) scale(0.971547 0.95786) translate(-1333.99 -1061.38) translate(1184.93 -233.374) scale(0.894571 1) translate(-1184.93 233.374) translate(1254.16 -233.374) scale(0.84286 1) translate(-1254.16 233.374) translate(113.606 -233.374) scale(1 1.02357) translate(-113.606 233.374) translate(1363.45 -228) scale(0.88639 1) translate(-1363.45 228) translate(1436.63 -228) scale(0.957276 0.972369) translate(-1436.63 228) translate(211.001 -234.479) scale(1 1.08051) translate(-211.001 234.479) translate(219.582 -226.807) scale(1 1.02338) translate(-219.582 226.807)">
   <clipPath stroke="null" id="svg_2">
    <rect stroke="null" x="2931.94135" y="101.40287" fill="#ffcdcf" transform="translate(-0.0000610352 0)" height="915" width="947" data-name="Rectangle 11" id="svg_4"/>
   </clipPath>
  </defs>
  <path opacity="0.84" stroke-width="4" stroke-dasharray="2,2" stroke="null" fill-rule="evenodd" fill="#4a8985" d="m193.47517,312.77637c19.95828,60.59225 145.94591,66.16114 207.03661,111.28969c57.71514,42.6343 60.04335,120.87571 137.58044,143.29171c77.22246,22.32694 162.49228,-13.3898 240.71455,-33.92324c73.67771,-19.33892 149.88639,-39.02284 199.68771,-81.68111c49.32589,-42.25651 62.14853,-97.99531 73.13936,-152.03457c11.05375,-54.38622 27.2883,-112.78614 -9.4317,-161.33775c-36.23758,-47.9218 -123.04555,-60.38672 -183.72584,-94.06969c-70.25881,-38.99739 -113.71174,-104.82723 -200.89726,-119.41596c-92.77882,-15.5234 -205.07126,-5.91633 -274.50995,39.87138c-68.98284,45.48529 -37.99387,126.45586 -71.7697,188.45158c-31.10782,57.10215 -137.4413,99.99972 -117.82421,159.55796z" data-name="Path 45" id="svg_3"/>
 </g>

</svg>